<svg width="1861" height="2458" viewBox="0 0 1861 2458" fill="none" xmlns="http://www.w3.org/2000/svg">
<path d="M1532 480.974V1813L1861 1810.27L1849 441L1532 480.974Z" fill="#53005C"/>
<path d="M1564 1850.02V446.685L920 182V1865L1564 1850.02Z" fill="#39013F"/>
<path d="M1480.88 1256.13L1490.78 670.744C1491.22 644.727 1469.86 619.274 1459.12 609.801C1386.26 591.541 1216.93 531.749 1101.4 496.924C989.897 463.311 932.473 494.033 924.549 501.476L924.549 1288.64C1053.57 1300.09 1329.34 1324.23 1400.25 1329.13C1471.16 1334.04 1483.55 1282.51 1480.88 1256.13Z" fill="#1D0020"/>
<path d="M1662.48 306.594C1724.72 323.688 1849.06 374.59 1849 441.5C1540.95 328.15 916.369 94.228 920.121 75.6452C923.873 57.0624 919.924 26.2517 902.826 3.00311L1662.48 306.594Z" fill="#08090A"/>
<path d="M1861 1770.61L920.123 1789.24V2455.51L1861 2241.19V1770.61Z" fill="#131517"/>
<path d="M1812.16 1844.33L1440.43 1852.99V2243.93L1812.16 2175.04V1844.33Z" fill="#3E0043"/>
<path d="M1563.5 480L1849 441.5L952.546 87.9311L889 63L878 208.5L1563.5 480Z" fill="#2C0031"/>
<path d="M907.175 7.60307C906.486 4.82328 904.174 2.74339 901.337 2.35216L887.449 0.437019L47.692 123.27C44.3029 123.766 41.7702 126.641 41.7063 130.066L0.120498 2358.99C0.0524666 2362.63 2.79546 2365.72 6.42445 2366.08L916.925 2456.91C921.045 2457.32 924.62 2454.09 924.62 2449.95V2439.23V78.0116L907.175 7.60307Z" fill="#08090A"/>
<path d="M923.581 92.9399L41.5086 210.55V169.04C43.1058 135.465 51.8582 123.859 83.0179 117.154L878.613 3.00311C909.029 2.01311 918.21 10.3256 923.581 37.5942V92.9399Z" fill="black" stroke="black"/>
<ellipse cx="24.8386" cy="24.7208" rx="24.8386" ry="24.7208" transform="matrix(-0.988298 0.152534 0.154027 0.988067 95.1206 2290.4)" fill="#5FBFF9"/>
<ellipse cx="24.8386" cy="24.7208" rx="24.8386" ry="24.7208" transform="matrix(-0.988298 0.152534 0.154027 0.988067 860.966 2355.45)" fill="#5FBFF9"/>
<ellipse cx="23.5134" cy="23.4019" rx="23.5134" ry="23.4019" transform="matrix(-0.988298 0.152534 0.154027 0.988067 861.703 31.7935)" fill="#5FBFF9"/>
<path d="M61.9942 173.036C63.9849 185.806 76.0028 194.553 88.837 192.572C101.671 190.591 110.461 178.633 108.471 165.862C106.48 153.092 94.4621 144.346 81.6279 146.326C68.7938 148.307 60.0034 160.265 61.9942 173.036Z" fill="#5FBFF9"/>
<path d="M192.061 2064.41C169.547 1936.7 258.91 1711.23 462.5 1701.5L475 2307.5C472.786 2307.26 468.688 2310.27 466.5 2310C305.726 2289.93 214.271 2190.41 192.061 2064.41Z" fill="#326C8E"/>
<path d="M444.811 1703.35C158.84 1746.84 99.8036 2323.76 523.602 2302.36C923.305 2206.43 756.514 1650.61 444.811 1703.35Z" fill="#2474A3"/>
<path d="M231.598 1943.75C286.731 1983.83 329.477 1988.52 421.408 1973.18L452.71 2048.56C396.33 2109.85 352.749 2148.45 255.799 2167.51C213.729 2074.56 214.12 2015.68 231.598 1943.75Z" fill="#51A4D6"/>
<path d="M691.437 2202.6C678.534 2082.05 632.1 2042.93 527.255 1997.9L475.162 2044.74C531.534 2154.83 532.765 2204.69 467.5 2309.5C594.366 2295.16 616.536 2282.39 691.437 2202.6Z" fill="#51A4D6"/>
<path d="M231.598 1943.75C286.731 1983.83 329.477 1988.52 421.408 1973.18L452.71 2048.56C396.33 2109.85 352.749 2148.45 255.799 2167.51C213.729 2074.56 214.12 2015.68 231.598 1943.75Z" stroke="#51A4D6"/>
<path d="M691.437 2202.6C678.534 2082.05 632.1 2042.93 527.255 1997.9L475.162 2044.74C531.534 2154.83 532.765 2204.69 467.5 2309.5C594.366 2295.16 616.536 2282.39 691.437 2202.6Z" stroke="#51A4D6"/>
<path d="M403.922 1843.23C397.433 1777.51 407.831 1746.92 449.3 1702.58C563.573 1700.89 622.465 1726.57 690.728 1818.18C591.579 1824.87 550.408 1853.83 505.936 1954.06L440.719 1950.91L417.046 1893.22C412.483 1881.85 409.636 1871.29 403.922 1843.23Z" fill="#51A4D6" stroke="#51A4D6"/>
<ellipse cx="54.6562" cy="56.1625" rx="54.6562" ry="56.1625" transform="matrix(-0.98584 0.167691 0.167691 0.98584 516.268 1933.31)" fill="#326C8E"/>
<path d="M192.061 1323.72C169.547 1196.01 258.91 970.532 462.5 960.805L475 1566.81C472.786 1566.56 468.688 1569.58 466.5 1569.31C305.726 1549.23 214.271 1449.71 192.061 1323.72Z" fill="#326C8E"/>
<path d="M444.811 962.651C158.84 1006.14 99.8036 1583.06 523.602 1561.67C923.305 1465.73 756.514 909.913 444.811 962.651Z" fill="#2474A3"/>
<path d="M231.598 1203.06C286.731 1243.14 329.477 1247.83 421.408 1232.49L452.71 1307.87C396.33 1369.15 352.749 1407.76 255.799 1426.82C213.729 1333.86 214.12 1274.99 231.598 1203.06Z" fill="#51A4D6"/>
<path d="M691.437 1461.9C678.534 1341.35 632.1 1302.24 527.255 1257.21L475.162 1304.05C531.534 1414.14 532.765 1463.99 467.5 1568.81C594.366 1554.46 616.536 1541.7 691.437 1461.9Z" fill="#51A4D6"/>
<path d="M231.598 1203.06C286.731 1243.14 329.477 1247.83 421.408 1232.49L452.71 1307.87C396.33 1369.15 352.749 1407.76 255.799 1426.82C213.729 1333.86 214.12 1274.99 231.598 1203.06Z" stroke="#51A4D6"/>
<path d="M691.437 1461.9C678.534 1341.35 632.1 1302.24 527.255 1257.21L475.162 1304.05C531.534 1414.14 532.765 1463.99 467.5 1568.81C594.366 1554.46 616.536 1541.7 691.437 1461.9Z" stroke="#51A4D6"/>
<path d="M403.922 1102.53C397.433 1036.81 407.831 1006.22 449.3 961.886C563.573 960.197 622.465 985.873 690.728 1077.48C591.579 1084.18 550.408 1113.13 505.936 1213.36L440.719 1210.21L417.046 1152.52C412.483 1141.15 409.636 1130.6 403.922 1102.53Z" fill="#51A4D6" stroke="#51A4D6"/>
<ellipse cx="54.6562" cy="56.1625" rx="54.6562" ry="56.1625" transform="matrix(-0.98584 0.167691 0.167691 0.98584 516.268 1192.61)" fill="#326C8E"/>
<path d="M174.729 623.718C152.216 496.009 241.579 270.532 445.168 260.806L457.668 866.806C455.454 866.562 451.356 869.579 449.168 869.306C288.395 849.231 196.94 749.712 174.729 623.718Z" fill="#326C8E"/>
<path d="M427.479 262.651C141.508 306.143 82.4721 883.062 506.271 861.667C905.973 765.731 739.183 209.913 427.479 262.651Z" fill="#2474A3"/>
<path d="M214.266 503.056C269.399 543.137 312.146 547.826 404.076 532.486L435.379 607.867C378.998 669.154 335.418 707.759 238.468 726.816C196.397 633.864 196.788 574.989 214.266 503.056Z" fill="#51A4D6"/>
<path d="M674.105 761.905C661.203 641.351 614.768 602.237 509.924 557.208L457.831 604.048C514.203 714.14 515.433 763.992 450.168 868.806C577.035 854.463 599.204 841.698 674.105 761.905Z" fill="#51A4D6"/>
<path d="M214.266 503.056C269.399 543.137 312.146 547.826 404.076 532.486L435.379 607.867C378.998 669.154 335.418 707.759 238.468 726.816C196.397 633.864 196.788 574.989 214.266 503.056Z" stroke="#51A4D6"/>
<path d="M674.105 761.905C661.203 641.351 614.768 602.237 509.924 557.208L457.831 604.048C514.203 714.14 515.433 763.992 450.168 868.806C577.035 854.463 599.204 841.698 674.105 761.905Z" stroke="#51A4D6"/>
<path d="M386.591 402.533C380.101 336.811 390.499 306.223 431.969 261.887C546.241 260.198 605.133 285.873 673.397 377.485C574.248 384.179 533.077 413.134 488.605 513.361L423.387 510.212L399.714 452.523C395.151 441.152 392.304 430.6 386.591 402.533Z" fill="#51A4D6" stroke="#51A4D6"/>
<ellipse cx="54.6562" cy="56.1625" rx="54.6562" ry="56.1625" transform="matrix(-0.98584 0.167691 0.167691 0.98584 498.936 492.612)" fill="#326C8E"/>
<path d="M924.62 2457.68V2174.24L406.272 69.3445L121.415 111.164C82.7079 115.917 66.8857 119.937 55.3458 130.99C43.7083 145.542 40.847 153.473 42.0282 166.922L65.3772 245.914L584.589 2424.38L924.62 2457.68Z" fill="#4F6763" fill-opacity="0.06"/>
</svg>
