<svg width="398" height="381" viewBox="0 0 398 381" fill="none" xmlns="http://www.w3.org/2000/svg">
<path d="M60.6318 46.3292C65.7314 20.9465 90.7653 4.77043 116.002 10.5512L350.33 64.2275C374.951 69.8674 390.419 94.3061 384.979 118.973L339.016 327.39C332.902 355.112 303.384 370.733 277.023 360.198L53.9173 271.028C33.3078 262.79 21.5188 241.012 25.8905 219.252L60.6318 46.3292Z" fill="#330F7E"/>
<path d="M60.5255 46.5C62.9452 37.3739 65.3247 33.2995 70.5215 27L128.961 177L32.5 240L27.0389 239C24.4893 231.987 24.5408 227.509 26.0393 219L60.5255 46.5Z" fill="#260272"/>
<path d="M319.845 355.81L225.845 192.31L121.345 176.81L26.8448 238.81C30.5138 254.798 35.9628 261.94 52.8448 270.81L273.845 358.81C292.184 365.3 302.255 364.653 319.845 355.81Z" fill="#330F7E"/>
<path d="M389.845 136.31C397.119 100.542 391.302 86.5893 365.345 71.3101C380.242 87.0375 383.21 95.6487 383.345 110.81L333.345 340.31C317.845 369.309 281 361 281 361C328.5 382 345.345 344.31 345.345 344.31L389.845 136.31Z" fill="#171D1C"/>
<path d="M321.845 354.31L227.845 192.31C283.094 119.093 311.181 81.9099 366.845 71.8099C381.172 82.4553 388.134 98.0808 385.345 113.31C369.612 191.371 359.959 233.487 342.845 308.81C337.069 336.453 332.335 345.775 321.845 354.31Z" fill="#180441"/>
<path d="M191.439 227.479C331.632 88.1627 368.565 76.4481 368.565 76.4481C372.214 64.479 290.732 48.7283 106.701 14.4671C88.9506 12.4591 80.8385 14.6869 70.7711 26.6759C85.231 103.602 100.517 145.424 145.876 216.743C162.452 240.451 172.407 243.184 191.439 227.479Z" fill="#250F53" stroke="#330F7E"/>
<path d="M201.14 96.1926C206.671 97.5715 211.195 99.7818 214.714 102.823C218.233 105.865 220.576 109.489 221.742 113.697C222.97 117.868 222.979 122.379 221.769 127.23C220.801 131.111 219.197 134.653 216.955 137.856C214.762 141.071 212.126 143.48 209.047 145.083C206.017 146.698 202.803 147.082 199.407 146.235C196.933 145.618 195.125 144.6 193.985 143.182C192.856 141.716 192.37 139.945 192.526 137.872C190.538 139.437 188.265 140.494 185.707 141.041C183.148 141.588 180.632 141.554 178.158 140.937C174.422 140.005 171.765 138.158 170.187 135.394C168.669 132.593 168.394 129.253 169.362 125.371C170.281 121.684 171.892 118.427 174.194 115.6C176.545 112.785 179.339 110.777 182.576 109.574C185.825 108.323 189.172 108.127 192.617 108.986C196.838 110.038 199.44 112.207 200.425 115.493L201.987 112.017L209.191 113.814L200.363 133.719C199.964 134.702 199.667 135.581 199.474 136.358C199.159 137.619 199.166 138.625 199.494 139.377C199.87 140.141 200.713 140.686 202.023 141.013C203.867 141.472 205.667 140.968 207.425 139.499C209.194 137.982 210.727 135.968 212.023 133.457C213.368 130.958 214.354 128.448 214.983 125.925C216.52 119.763 215.898 114.61 213.118 110.464C210.339 106.319 205.528 103.393 198.688 101.688C192.963 100.26 187.482 100.336 182.244 101.916C177.055 103.508 172.582 106.361 168.825 110.474C165.068 114.587 162.464 119.555 161.013 125.377C159.464 131.587 160.129 136.776 163.005 140.946C165.882 145.116 170.741 148.054 177.581 149.759C182.19 150.908 186.428 151.063 190.296 150.224L190.009 156.027C185.122 156.818 179.938 156.531 174.456 155.164C169.168 153.845 164.783 151.696 161.3 148.715C157.818 145.734 155.445 142.127 154.181 137.896C152.905 133.713 152.872 129.196 154.082 124.344C155.811 117.407 158.991 111.475 163.62 106.548C168.298 101.634 173.911 98.241 180.458 96.3693C187.017 94.4491 193.911 94.3902 201.14 96.1926ZM182.301 135.168C184.339 135.676 186.328 135.553 188.268 134.8C190.268 134.011 191.995 132.767 193.449 131.068C194.916 129.321 195.927 127.331 196.483 125.1C197.064 122.771 196.881 120.716 195.934 118.934C195.047 117.115 193.44 115.916 191.111 115.335C189.025 114.815 187.018 115.01 185.091 115.921C183.224 116.795 181.599 118.142 180.218 119.962C178.885 121.794 177.941 123.826 177.384 126.058C176.816 128.338 176.92 130.296 177.697 131.933C178.486 133.521 180.021 134.599 182.301 135.168Z" fill="#5FBFF9"/>
</svg>
